<svg width="338" height="352" viewBox="0 0 338 352" fill="none" xmlns="http://www.w3.org/2000/svg">
<circle cx="133" cy="150" r="71.75" stroke="#2B2B2B" stroke-width="0.5"/>
<circle cx="205" cy="150" r="71.75" stroke="#2B2B2B" stroke-width="0.5"/>
<path d="M240.75 222C240.75 261.626 208.626 293.75 169 293.75C129.374 293.75 97.25 261.626 97.25 222C97.25 182.374 129.374 150.25 169 150.25C208.626 150.25 240.75 182.374 240.75 222Z" stroke="#2B2B2B" stroke-width="0.5"/>
<path d="M312.75 176C312.75 255.391 248.391 319.75 169 319.75C89.6091 319.75 25.25 255.391 25.25 176C25.25 96.6091 89.6091 32.25 169 32.25C248.391 32.25 312.75 96.6091 312.75 176Z" stroke="#2B2B2B" stroke-width="0.5"/>
<path d="M63.3787 123V114.816H60.8707V113.1H67.8307V114.816H65.3167V123H63.3787ZM71.1552 123.192C70.4912 123.192 69.8952 123.05 69.3672 122.766C68.8432 122.478 68.4272 122.088 68.1192 121.596C67.8112 121.104 67.6572 120.548 67.6572 119.928C67.6572 119.472 67.7432 119.046 67.9152 118.65C68.0912 118.254 68.3352 117.908 68.6472 117.612C68.9592 117.312 69.3212 117.08 69.7332 116.916C70.1452 116.748 70.5912 116.664 71.0712 116.664C71.7112 116.664 72.2712 116.798 72.7512 117.066C73.2352 117.33 73.6112 117.698 73.8792 118.17C74.1512 118.642 74.2872 119.192 74.2872 119.82C74.2872 119.872 74.2852 119.918 74.2812 119.958C74.2812 119.994 74.2752 120.064 74.2632 120.168H69.5532C69.5532 120.48 69.6232 120.752 69.7632 120.984C69.9072 121.216 70.1072 121.398 70.3632 121.53C70.6192 121.658 70.9172 121.722 71.2572 121.722C71.5772 121.722 71.8592 121.66 72.1032 121.536C72.3512 121.412 72.5892 121.214 72.8172 120.942L74.1432 121.608C73.8552 122.104 73.4472 122.492 72.9192 122.772C72.3912 123.052 71.8032 123.192 71.1552 123.192ZM69.6192 119.148H72.4752C72.4352 118.912 72.3492 118.708 72.2172 118.536C72.0892 118.364 71.9252 118.232 71.7252 118.14C71.5252 118.048 71.2992 118.002 71.0472 118.002C70.7792 118.002 70.5432 118.048 70.3392 118.14C70.1352 118.232 69.9712 118.364 69.8472 118.536C69.7232 118.708 69.6472 118.912 69.6192 119.148ZM78.8233 123.192C78.3553 123.192 77.9133 123.108 77.4973 122.94C77.0853 122.772 76.7213 122.54 76.4053 122.244C76.0893 121.944 75.8413 121.598 75.6613 121.206C75.4813 120.81 75.3913 120.386 75.3913 119.934C75.3913 119.498 75.4753 119.084 75.6433 118.692C75.8153 118.3 76.0553 117.952 76.3633 117.648C76.6753 117.344 77.0393 117.104 77.4553 116.928C77.8753 116.752 78.3293 116.664 78.8173 116.664C79.2133 116.664 79.5933 116.72 79.9573 116.832C80.3253 116.944 80.6213 117.088 80.8453 117.264L80.2153 118.506C79.9153 118.286 79.5433 118.176 79.0993 118.176C78.7193 118.176 78.3973 118.26 78.1333 118.428C77.8693 118.596 77.6673 118.814 77.5273 119.082C77.3913 119.35 77.3233 119.632 77.3233 119.928C77.3233 120.252 77.3973 120.548 77.5453 120.816C77.6933 121.08 77.9013 121.29 78.1693 121.446C78.4413 121.602 78.7553 121.68 79.1113 121.68C79.3313 121.68 79.5373 121.65 79.7293 121.59C79.9213 121.53 80.0833 121.45 80.2153 121.35L80.8453 122.592C80.6173 122.764 80.3233 122.906 79.9633 123.018C79.6033 123.134 79.2233 123.192 78.8233 123.192ZM82.336 123V112.68H84.178V117.54C84.414 117.276 84.708 117.064 85.06 116.904C85.416 116.744 85.808 116.664 86.236 116.664C86.708 116.664 87.122 116.768 87.478 116.976C87.838 117.18 88.12 117.466 88.324 117.834C88.528 118.198 88.63 118.624 88.63 119.112V123H86.788V119.502C86.788 119.062 86.672 118.72 86.44 118.476C86.212 118.228 85.898 118.104 85.498 118.104C85.226 118.104 84.99 118.16 84.79 118.272C84.594 118.38 84.442 118.53 84.334 118.722C84.23 118.91 84.178 119.124 84.178 119.364V123H82.336ZM90.6798 123V116.856H92.5218V117.54C92.7578 117.276 93.0518 117.064 93.4038 116.904C93.7598 116.744 94.1518 116.664 94.5798 116.664C95.0518 116.664 95.4658 116.768 95.8218 116.976C96.1818 117.18 96.4638 117.466 96.6678 117.834C96.8718 118.198 96.9738 118.624 96.9738 119.112V123H95.1318V119.502C95.1318 119.062 95.0158 118.72 94.7838 118.476C94.5558 118.228 94.2418 118.104 93.8418 118.104C93.5698 118.104 93.3338 118.16 93.1338 118.272C92.9378 118.38 92.7858 118.53 92.6777 118.722C92.5738 118.91 92.5218 119.124 92.5218 119.364V123H90.6798ZM99.0175 123V116.856H100.86V123H99.0175ZM99.9415 115.578C99.7415 115.578 99.5575 115.53 99.3895 115.434C99.2255 115.334 99.0935 115.2 98.9935 115.032C98.8935 114.864 98.8435 114.68 98.8435 114.48C98.8435 114.28 98.8935 114.098 98.9935 113.934C99.0935 113.77 99.2255 113.64 99.3895 113.544C99.5575 113.444 99.7415 113.394 99.9415 113.394C100.142 113.394 100.324 113.444 100.488 113.544C100.652 113.64 100.782 113.77 100.878 113.934C100.978 114.098 101.028 114.28 101.028 114.48C101.028 114.68 100.978 114.864 100.878 115.032C100.782 115.2 100.652 115.334 100.488 115.434C100.324 115.53 100.142 115.578 99.9415 115.578ZM105.905 123.192C105.437 123.192 104.995 123.108 104.579 122.94C104.167 122.772 103.803 122.54 103.487 122.244C103.171 121.944 102.923 121.598 102.743 121.206C102.563 120.81 102.473 120.386 102.473 119.934C102.473 119.498 102.557 119.084 102.725 118.692C102.897 118.3 103.137 117.952 103.445 117.648C103.757 117.344 104.121 117.104 104.537 116.928C104.957 116.752 105.411 116.664 105.899 116.664C106.295 116.664 106.675 116.72 107.039 116.832C107.407 116.944 107.703 117.088 107.927 117.264L107.297 118.506C106.997 118.286 106.625 118.176 106.181 118.176C105.801 118.176 105.479 118.26 105.215 118.428C104.951 118.596 104.749 118.814 104.609 119.082C104.473 119.35 104.405 119.632 104.405 119.928C104.405 120.252 104.479 120.548 104.627 120.816C104.775 121.08 104.983 121.29 105.251 121.446C105.523 121.602 105.837 121.68 106.193 121.68C106.413 121.68 106.619 121.65 106.811 121.59C107.003 121.53 107.165 121.45 107.297 121.35L107.927 122.592C107.699 122.764 107.405 122.906 107.045 123.018C106.685 123.134 106.305 123.192 105.905 123.192ZM111.921 123.192C111.357 123.192 110.843 123.052 110.379 122.772C109.919 122.488 109.553 122.1 109.281 121.608C109.013 121.112 108.879 120.548 108.879 119.916C108.879 119.3 109.009 118.748 109.269 118.26C109.529 117.768 109.887 117.38 110.343 117.096C110.803 116.808 111.329 116.664 111.921 116.664C112.357 116.664 112.763 116.748 113.139 116.916C113.519 117.08 113.829 117.31 114.069 117.606V116.856H115.911V123H114.069V122.19C113.789 122.514 113.467 122.762 113.103 122.934C112.739 123.106 112.345 123.192 111.921 123.192ZM112.467 121.626C112.787 121.626 113.071 121.554 113.319 121.41C113.567 121.262 113.761 121.06 113.901 120.804C114.041 120.548 114.111 120.256 114.111 119.928C114.111 119.596 114.039 119.304 113.895 119.052C113.755 118.796 113.561 118.596 113.313 118.452C113.069 118.304 112.787 118.23 112.467 118.23C112.151 118.23 111.869 118.304 111.621 118.452C111.373 118.596 111.177 118.796 111.033 119.052C110.889 119.308 110.817 119.6 110.817 119.928C110.817 120.256 110.887 120.548 111.027 120.804C111.171 121.06 111.367 121.262 111.615 121.41C111.863 121.554 112.147 121.626 112.467 121.626ZM118.078 123V112.68H119.92V123H118.078ZM82.6229 144.192C82.1029 144.192 81.6369 144.11 81.2249 143.946C80.8169 143.782 80.4769 143.542 80.2049 143.226L80.9789 141.99C81.2349 142.262 81.5029 142.47 81.7829 142.614C82.0629 142.758 82.3429 142.83 82.6229 142.83C82.7789 142.83 82.9129 142.804 83.0249 142.752C83.1409 142.7 83.2309 142.626 83.2949 142.53C83.3629 142.43 83.3969 142.31 83.3969 142.17C83.3969 142.01 83.3509 141.884 83.2589 141.792C83.1709 141.7 83.0349 141.616 82.8509 141.54C82.6669 141.46 82.4289 141.36 82.1369 141.24C81.8889 141.136 81.6509 141.018 81.4229 140.886C81.1949 140.754 81.0089 140.586 80.8649 140.382C80.7249 140.178 80.6549 139.92 80.6549 139.608C80.6549 139.228 80.7609 138.894 80.9729 138.606C81.1849 138.314 81.4769 138.086 81.8489 137.922C82.2249 137.758 82.6569 137.676 83.1449 137.676C83.4489 137.676 83.7669 137.722 84.0989 137.814C84.4349 137.906 84.7929 138.046 85.1729 138.234L84.5429 139.416C84.0269 139.084 83.5649 138.918 83.1569 138.918C82.9289 138.918 82.7469 138.968 82.6109 139.068C82.4749 139.168 82.4069 139.294 82.4069 139.446C82.4069 139.59 82.4769 139.716 82.6169 139.824C82.7609 139.928 82.9349 140.022 83.1389 140.106C83.3469 140.186 83.5449 140.26 83.7329 140.328C84.0409 140.44 84.3129 140.564 84.5489 140.7C84.7889 140.836 84.9769 141.014 85.1129 141.234C85.2489 141.45 85.3169 141.74 85.3169 142.104C85.3169 142.548 85.2089 142.926 84.9929 143.238C84.7809 143.546 84.4729 143.782 84.0689 143.946C83.6689 144.11 83.1869 144.192 82.6229 144.192ZM89.036 144.192C88.424 144.192 87.948 143.998 87.608 143.61C87.268 143.218 87.098 142.672 87.098 141.972V139.254H86.276V137.856H87.098V135.552H88.94V137.856H90.29V139.254H88.94V141.84C88.94 142.072 88.986 142.248 89.078 142.368C89.174 142.488 89.308 142.548 89.48 142.548C89.672 142.548 89.856 142.484 90.032 142.356L90.494 143.832C90.286 143.944 90.052 144.032 89.792 144.096C89.536 144.16 89.284 144.192 89.036 144.192ZM94.6246 144.192C94.0606 144.192 93.5466 144.052 93.0826 143.772C92.6226 143.488 92.2566 143.1 91.9846 142.608C91.7166 142.112 91.5826 141.548 91.5826 140.916C91.5826 140.3 91.7126 139.748 91.9726 139.26C92.2326 138.768 92.5906 138.38 93.0466 138.096C93.5066 137.808 94.0326 137.664 94.6246 137.664C95.0606 137.664 95.4666 137.748 95.8426 137.916C96.2226 138.08 96.5326 138.31 96.7726 138.606V137.856H98.6146V144H96.7726V143.19C96.4926 143.514 96.1706 143.762 95.8066 143.934C95.4426 144.106 95.0486 144.192 94.6246 144.192ZM95.1706 142.626C95.4906 142.626 95.7746 142.554 96.0226 142.41C96.2706 142.262 96.4646 142.06 96.6046 141.804C96.7446 141.548 96.8146 141.256 96.8146 140.928C96.8146 140.596 96.7426 140.304 96.5986 140.052C96.4586 139.796 96.2646 139.596 96.0166 139.452C95.7726 139.304 95.4906 139.23 95.1706 139.23C94.8546 139.23 94.5726 139.304 94.3246 139.452C94.0766 139.596 93.8806 139.796 93.7366 140.052C93.5926 140.308 93.5206 140.6 93.5206 140.928C93.5206 141.256 93.5906 141.548 93.7306 141.804C93.8746 142.06 94.0706 142.262 94.3186 142.41C94.5666 142.554 94.8506 142.626 95.1706 142.626ZM100.781 144V133.68H102.623V140.1L104.891 137.856H107.279L104.273 140.868L107.417 144H105.053L102.623 141.57V144H100.781ZM111.198 144.192C110.534 144.192 109.938 144.05 109.41 143.766C108.886 143.478 108.47 143.088 108.162 142.596C107.854 142.104 107.7 141.548 107.7 140.928C107.7 140.472 107.786 140.046 107.958 139.65C108.134 139.254 108.378 138.908 108.69 138.612C109.002 138.312 109.364 138.08 109.776 137.916C110.188 137.748 110.634 137.664 111.114 137.664C111.754 137.664 112.314 137.798 112.794 138.066C113.278 138.33 113.654 138.698 113.922 139.17C114.194 139.642 114.33 140.192 114.33 140.82C114.33 140.872 114.328 140.918 114.324 140.958C114.324 140.994 114.318 141.064 114.306 141.168H109.596C109.596 141.48 109.666 141.752 109.806 141.984C109.95 142.216 110.15 142.398 110.406 142.53C110.662 142.658 110.96 142.722 111.3 142.722C111.62 142.722 111.902 142.66 112.146 142.536C112.394 142.412 112.632 142.214 112.86 141.942L114.186 142.608C113.898 143.104 113.49 143.492 112.962 143.772C112.434 144.052 111.846 144.192 111.198 144.192ZM109.662 140.148H112.518C112.478 139.912 112.392 139.708 112.26 139.536C112.132 139.364 111.968 139.232 111.768 139.14C111.568 139.048 111.342 139.002 111.09 139.002C110.822 139.002 110.586 139.048 110.382 139.14C110.178 139.232 110.014 139.364 109.89 139.536C109.766 139.708 109.69 139.912 109.662 140.148ZM117.685 144.192C117.165 144.192 116.699 144.11 116.287 143.946C115.879 143.782 115.539 143.542 115.267 143.226L116.041 141.99C116.297 142.262 116.565 142.47 116.845 142.614C117.125 142.758 117.405 142.83 117.685 142.83C117.841 142.83 117.975 142.804 118.087 142.752C118.203 142.7 118.293 142.626 118.357 142.53C118.425 142.43 118.459 142.31 118.459 142.17C118.459 142.01 118.413 141.884 118.321 141.792C118.233 141.7 118.097 141.616 117.913 141.54C117.729 141.46 117.491 141.36 117.199 141.24C116.951 141.136 116.713 141.018 116.485 140.886C116.257 140.754 116.071 140.586 115.927 140.382C115.787 140.178 115.717 139.92 115.717 139.608C115.717 139.228 115.823 138.894 116.035 138.606C116.247 138.314 116.539 138.086 116.911 137.922C117.287 137.758 117.719 137.676 118.207 137.676C118.511 137.676 118.829 137.722 119.161 137.814C119.497 137.906 119.855 138.046 120.235 138.234L119.605 139.416C119.089 139.084 118.627 138.918 118.219 138.918C117.991 138.918 117.809 138.968 117.673 139.068C117.537 139.168 117.469 139.294 117.469 139.446C117.469 139.59 117.539 139.716 117.679 139.824C117.823 139.928 117.997 140.022 118.201 140.106C118.409 140.186 118.607 140.26 118.795 140.328C119.103 140.44 119.375 140.564 119.611 140.7C119.851 140.836 120.039 141.014 120.175 141.234C120.311 141.45 120.379 141.74 120.379 142.104C120.379 142.548 120.271 142.926 120.055 143.238C119.843 143.546 119.535 143.782 119.131 143.946C118.731 144.11 118.249 144.192 117.685 144.192Z" fill="#2B2B2B"/>
<path d="M210.834 123V113.1H213.672C214.624 113.1 215.37 113.308 215.91 113.724C216.45 114.14 216.72 114.762 216.72 115.59C216.72 116.618 216.296 117.344 215.448 117.768C216.14 117.876 216.67 118.142 217.038 118.566C217.41 118.986 217.596 119.538 217.596 120.222C217.596 120.798 217.466 121.294 217.206 121.71C216.946 122.126 216.576 122.446 216.096 122.67C215.616 122.89 215.048 123 214.392 123H210.834ZM212.772 117.108H213.222C213.746 117.108 214.148 117 214.428 116.784C214.708 116.564 214.848 116.25 214.848 115.842C214.848 115.43 214.712 115.122 214.44 114.918C214.168 114.71 213.762 114.606 213.222 114.606H212.772V117.108ZM212.772 121.488H213.732C214.34 121.488 214.796 121.376 215.1 121.152C215.408 120.928 215.562 120.598 215.562 120.162C215.562 119.718 215.404 119.378 215.088 119.142C214.776 118.902 214.324 118.782 213.732 118.782H212.772V121.488ZM222.043 123.192C220.923 123.192 220.115 122.97 219.619 122.526C219.123 122.082 218.875 121.356 218.875 120.348V116.856H220.717V119.916C220.717 120.564 220.817 121.022 221.017 121.29C221.221 121.558 221.563 121.692 222.043 121.692C222.531 121.692 222.873 121.558 223.069 121.29C223.269 121.022 223.369 120.564 223.369 119.916V116.856H225.211V120.348C225.211 121.356 224.963 122.082 224.467 122.526C223.975 122.97 223.167 123.192 222.043 123.192ZM228.928 123.192C228.408 123.192 227.942 123.11 227.53 122.946C227.122 122.782 226.782 122.542 226.51 122.226L227.284 120.99C227.54 121.262 227.808 121.47 228.088 121.614C228.368 121.758 228.648 121.83 228.928 121.83C229.084 121.83 229.218 121.804 229.33 121.752C229.446 121.7 229.536 121.626 229.6 121.53C229.668 121.43 229.702 121.31 229.702 121.17C229.702 121.01 229.656 120.884 229.564 120.792C229.476 120.7 229.34 120.616 229.156 120.54C228.972 120.46 228.734 120.36 228.442 120.24C228.194 120.136 227.956 120.018 227.728 119.886C227.5 119.754 227.314 119.586 227.17 119.382C227.03 119.178 226.96 118.92 226.96 118.608C226.96 118.228 227.066 117.894 227.278 117.606C227.49 117.314 227.782 117.086 228.154 116.922C228.53 116.758 228.962 116.676 229.45 116.676C229.754 116.676 230.072 116.722 230.404 116.814C230.74 116.906 231.098 117.046 231.478 117.234L230.848 118.416C230.332 118.084 229.87 117.918 229.462 117.918C229.234 117.918 229.052 117.968 228.916 118.068C228.78 118.168 228.712 118.294 228.712 118.446C228.712 118.59 228.782 118.716 228.922 118.824C229.066 118.928 229.24 119.022 229.444 119.106C229.652 119.186 229.85 119.26 230.038 119.328C230.346 119.44 230.618 119.564 230.854 119.7C231.094 119.836 231.282 120.014 231.418 120.234C231.554 120.45 231.622 120.74 231.622 121.104C231.622 121.548 231.514 121.926 231.298 122.238C231.086 122.546 230.778 122.782 230.374 122.946C229.974 123.11 229.492 123.192 228.928 123.192ZM233.322 123V116.856H235.164V123H233.322ZM234.246 115.578C234.046 115.578 233.862 115.53 233.694 115.434C233.53 115.334 233.398 115.2 233.298 115.032C233.198 114.864 233.148 114.68 233.148 114.48C233.148 114.28 233.198 114.098 233.298 113.934C233.398 113.77 233.53 113.64 233.694 113.544C233.862 113.444 234.046 113.394 234.246 113.394C234.446 113.394 234.628 113.444 234.792 113.544C234.956 113.64 235.086 113.77 235.182 113.934C235.282 114.098 235.332 114.28 235.332 114.48C235.332 114.68 235.282 114.864 235.182 115.032C235.086 115.2 234.956 115.334 234.792 115.434C234.628 115.53 234.446 115.578 234.246 115.578ZM237.336 123V116.856H239.178V117.54C239.414 117.276 239.708 117.064 240.06 116.904C240.416 116.744 240.808 116.664 241.236 116.664C241.708 116.664 242.122 116.768 242.478 116.976C242.838 117.18 243.12 117.466 243.324 117.834C243.528 118.198 243.63 118.624 243.63 119.112V123H241.788V119.502C241.788 119.062 241.672 118.72 241.44 118.476C241.212 118.228 240.898 118.104 240.498 118.104C240.226 118.104 239.99 118.16 239.79 118.272C239.594 118.38 239.442 118.53 239.334 118.722C239.23 118.91 239.178 119.124 239.178 119.364V123H237.336ZM248.632 123.192C247.968 123.192 247.372 123.05 246.844 122.766C246.32 122.478 245.904 122.088 245.596 121.596C245.288 121.104 245.134 120.548 245.134 119.928C245.134 119.472 245.22 119.046 245.392 118.65C245.568 118.254 245.812 117.908 246.124 117.612C246.436 117.312 246.798 117.08 247.21 116.916C247.622 116.748 248.068 116.664 248.548 116.664C249.188 116.664 249.748 116.798 250.228 117.066C250.712 117.33 251.088 117.698 251.356 118.17C251.628 118.642 251.764 119.192 251.764 119.82C251.764 119.872 251.762 119.918 251.758 119.958C251.758 119.994 251.752 120.064 251.74 120.168H247.03C247.03 120.48 247.1 120.752 247.24 120.984C247.384 121.216 247.584 121.398 247.84 121.53C248.096 121.658 248.394 121.722 248.734 121.722C249.054 121.722 249.336 121.66 249.58 121.536C249.828 121.412 250.066 121.214 250.294 120.942L251.62 121.608C251.332 122.104 250.924 122.492 250.396 122.772C249.868 123.052 249.28 123.192 248.632 123.192ZM247.096 119.148H249.952C249.912 118.912 249.826 118.708 249.694 118.536C249.566 118.364 249.402 118.232 249.202 118.14C249.002 118.048 248.776 118.002 248.524 118.002C248.256 118.002 248.02 118.048 247.816 118.14C247.612 118.232 247.448 118.364 247.324 118.536C247.2 118.708 247.124 118.912 247.096 119.148ZM255.119 123.192C254.599 123.192 254.133 123.11 253.721 122.946C253.313 122.782 252.973 122.542 252.701 122.226L253.475 120.99C253.731 121.262 253.999 121.47 254.279 121.614C254.559 121.758 254.839 121.83 255.119 121.83C255.275 121.83 255.409 121.804 255.521 121.752C255.637 121.7 255.727 121.626 255.791 121.53C255.859 121.43 255.893 121.31 255.893 121.17C255.893 121.01 255.847 120.884 255.755 120.792C255.667 120.7 255.531 120.616 255.347 120.54C255.163 120.46 254.925 120.36 254.633 120.24C254.385 120.136 254.147 120.018 253.919 119.886C253.691 119.754 253.505 119.586 253.361 119.382C253.221 119.178 253.151 118.92 253.151 118.608C253.151 118.228 253.257 117.894 253.469 117.606C253.681 117.314 253.973 117.086 254.345 116.922C254.721 116.758 255.153 116.676 255.641 116.676C255.945 116.676 256.263 116.722 256.595 116.814C256.931 116.906 257.289 117.046 257.669 117.234L257.039 118.416C256.523 118.084 256.061 117.918 255.653 117.918C255.425 117.918 255.243 117.968 255.107 118.068C254.971 118.168 254.903 118.294 254.903 118.446C254.903 118.59 254.973 118.716 255.113 118.824C255.257 118.928 255.431 119.022 255.635 119.106C255.843 119.186 256.041 119.26 256.229 119.328C256.537 119.44 256.809 119.564 257.045 119.7C257.285 119.836 257.473 120.014 257.609 120.234C257.745 120.45 257.813 120.74 257.813 121.104C257.813 121.548 257.705 121.926 257.489 122.238C257.277 122.546 256.969 122.782 256.565 122.946C256.165 123.11 255.683 123.192 255.119 123.192ZM261.26 123.192C260.74 123.192 260.274 123.11 259.862 122.946C259.454 122.782 259.114 122.542 258.842 122.226L259.616 120.99C259.872 121.262 260.14 121.47 260.42 121.614C260.7 121.758 260.98 121.83 261.26 121.83C261.416 121.83 261.55 121.804 261.662 121.752C261.778 121.7 261.868 121.626 261.932 121.53C262 121.43 262.034 121.31 262.034 121.17C262.034 121.01 261.988 120.884 261.896 120.792C261.808 120.7 261.672 120.616 261.488 120.54C261.304 120.46 261.066 120.36 260.774 120.24C260.526 120.136 260.288 120.018 260.06 119.886C259.832 119.754 259.646 119.586 259.502 119.382C259.362 119.178 259.292 118.92 259.292 118.608C259.292 118.228 259.398 117.894 259.61 117.606C259.822 117.314 260.114 117.086 260.486 116.922C260.862 116.758 261.294 116.676 261.782 116.676C262.086 116.676 262.404 116.722 262.736 116.814C263.072 116.906 263.43 117.046 263.81 117.234L263.18 118.416C262.664 118.084 262.202 117.918 261.794 117.918C261.566 117.918 261.384 117.968 261.248 118.068C261.112 118.168 261.044 118.294 261.044 118.446C261.044 118.59 261.114 118.716 261.254 118.824C261.398 118.928 261.572 119.022 261.776 119.106C261.984 119.186 262.182 119.26 262.37 119.328C262.678 119.44 262.95 119.564 263.186 119.7C263.426 119.836 263.614 120.014 263.75 120.234C263.886 120.45 263.954 120.74 263.954 121.104C263.954 121.548 263.846 121.926 263.63 122.238C263.418 122.546 263.11 122.782 262.706 122.946C262.306 123.11 261.824 123.192 261.26 123.192ZM212.826 144.192C212.306 144.192 211.84 144.11 211.428 143.946C211.02 143.782 210.68 143.542 210.408 143.226L211.182 141.99C211.438 142.262 211.706 142.47 211.986 142.614C212.266 142.758 212.546 142.83 212.826 142.83C212.982 142.83 213.116 142.804 213.228 142.752C213.344 142.7 213.434 142.626 213.498 142.53C213.566 142.43 213.6 142.31 213.6 142.17C213.6 142.01 213.554 141.884 213.462 141.792C213.374 141.7 213.238 141.616 213.054 141.54C212.87 141.46 212.632 141.36 212.34 141.24C212.092 141.136 211.854 141.018 211.626 140.886C211.398 140.754 211.212 140.586 211.068 140.382C210.928 140.178 210.858 139.92 210.858 139.608C210.858 139.228 210.964 138.894 211.176 138.606C211.388 138.314 211.68 138.086 212.052 137.922C212.428 137.758 212.86 137.676 213.348 137.676C213.652 137.676 213.97 137.722 214.302 137.814C214.638 137.906 214.996 138.046 215.376 138.234L214.746 139.416C214.23 139.084 213.768 138.918 213.36 138.918C213.132 138.918 212.95 138.968 212.814 139.068C212.678 139.168 212.61 139.294 212.61 139.446C212.61 139.59 212.68 139.716 212.82 139.824C212.964 139.928 213.138 140.022 213.342 140.106C213.55 140.186 213.748 140.26 213.936 140.328C214.244 140.44 214.516 140.564 214.752 140.7C214.992 140.836 215.18 141.014 215.316 141.234C215.452 141.45 215.52 141.74 215.52 142.104C215.52 142.548 215.412 142.926 215.196 143.238C214.984 143.546 214.676 143.782 214.272 143.946C213.872 144.11 213.39 144.192 212.826 144.192ZM219.239 144.192C218.627 144.192 218.151 143.998 217.811 143.61C217.471 143.218 217.301 142.672 217.301 141.972V139.254H216.479V137.856H217.301V135.552H219.143V137.856H220.493V139.254H219.143V141.84C219.143 142.072 219.189 142.248 219.281 142.368C219.377 142.488 219.511 142.548 219.683 142.548C219.875 142.548 220.059 142.484 220.235 142.356L220.697 143.832C220.489 143.944 220.255 144.032 219.995 144.096C219.739 144.16 219.487 144.192 219.239 144.192ZM222.289 144V137.856H224.131V138.738C224.359 138.394 224.637 138.13 224.965 137.946C225.297 137.758 225.653 137.664 226.033 137.664C226.249 137.664 226.473 137.696 226.705 137.76C226.937 137.824 227.131 137.906 227.287 138.006L226.519 139.56C226.383 139.468 226.223 139.396 226.039 139.344C225.859 139.288 225.691 139.26 225.535 139.26C225.295 139.26 225.067 139.322 224.851 139.446C224.635 139.57 224.461 139.732 224.329 139.932C224.197 140.128 224.131 140.34 224.131 140.568V144H222.289ZM230.781 144.192C230.217 144.192 229.703 144.052 229.239 143.772C228.779 143.488 228.413 143.1 228.141 142.608C227.873 142.112 227.739 141.548 227.739 140.916C227.739 140.3 227.869 139.748 228.129 139.26C228.389 138.768 228.747 138.38 229.203 138.096C229.663 137.808 230.189 137.664 230.781 137.664C231.217 137.664 231.623 137.748 231.999 137.916C232.379 138.08 232.689 138.31 232.929 138.606V137.856H234.771V144H232.929V143.19C232.649 143.514 232.327 143.762 231.963 143.934C231.599 144.106 231.205 144.192 230.781 144.192ZM231.327 142.626C231.647 142.626 231.931 142.554 232.179 142.41C232.427 142.262 232.621 142.06 232.761 141.804C232.901 141.548 232.971 141.256 232.971 140.928C232.971 140.596 232.899 140.304 232.755 140.052C232.615 139.796 232.421 139.596 232.173 139.452C231.929 139.304 231.647 139.23 231.327 139.23C231.011 139.23 230.729 139.304 230.481 139.452C230.233 139.596 230.037 139.796 229.893 140.052C229.749 140.308 229.677 140.6 229.677 140.928C229.677 141.256 229.747 141.548 229.887 141.804C230.031 142.06 230.227 142.262 230.475 142.41C230.723 142.554 231.007 142.626 231.327 142.626ZM238.974 144.192C238.362 144.192 237.886 143.998 237.546 143.61C237.206 143.218 237.036 142.672 237.036 141.972V139.254H236.214V137.856H237.036V135.552H238.878V137.856H240.228V139.254H238.878V141.84C238.878 142.072 238.924 142.248 239.016 142.368C239.112 142.488 239.246 142.548 239.418 142.548C239.61 142.548 239.794 142.484 239.97 142.356L240.432 143.832C240.224 143.944 239.99 144.032 239.73 144.096C239.474 144.16 239.222 144.192 238.974 144.192ZM244.976 144.192C244.312 144.192 243.716 144.05 243.188 143.766C242.664 143.478 242.248 143.088 241.94 142.596C241.632 142.104 241.478 141.548 241.478 140.928C241.478 140.472 241.564 140.046 241.736 139.65C241.912 139.254 242.156 138.908 242.468 138.612C242.78 138.312 243.142 138.08 243.554 137.916C243.966 137.748 244.412 137.664 244.892 137.664C245.532 137.664 246.092 137.798 246.572 138.066C247.056 138.33 247.432 138.698 247.7 139.17C247.972 139.642 248.108 140.192 248.108 140.82C248.108 140.872 248.106 140.918 248.102 140.958C248.102 140.994 248.096 141.064 248.084 141.168H243.374C243.374 141.48 243.444 141.752 243.584 141.984C243.728 142.216 243.928 142.398 244.184 142.53C244.44 142.658 244.738 142.722 245.078 142.722C245.398 142.722 245.68 142.66 245.924 142.536C246.172 142.412 246.41 142.214 246.638 141.942L247.964 142.608C247.676 143.104 247.268 143.492 246.74 143.772C246.212 144.052 245.624 144.192 244.976 144.192ZM243.44 140.148H246.296C246.256 139.912 246.17 139.708 246.038 139.536C245.91 139.364 245.746 139.232 245.546 139.14C245.346 139.048 245.12 139.002 244.868 139.002C244.6 139.002 244.363 139.048 244.16 139.14C243.956 139.232 243.792 139.364 243.668 139.536C243.544 139.708 243.468 139.912 243.44 140.148ZM252.728 147.3C251.9 147.3 251.204 147.148 250.64 146.844C250.076 146.544 249.666 146.1 249.41 145.512L250.91 144.78C251.078 145.064 251.326 145.29 251.654 145.458C251.982 145.626 252.338 145.71 252.722 145.71C253.07 145.71 253.376 145.64 253.64 145.5C253.904 145.364 254.11 145.17 254.258 144.918C254.406 144.67 254.48 144.382 254.48 144.054V143.19C254.208 143.506 253.886 143.752 253.514 143.928C253.142 144.104 252.742 144.192 252.314 144.192C251.758 144.192 251.25 144.054 250.79 143.778C250.334 143.498 249.97 143.112 249.698 142.62C249.426 142.128 249.29 141.564 249.29 140.928C249.29 140.304 249.422 139.748 249.686 139.26C249.954 138.768 250.318 138.38 250.778 138.096C251.242 137.808 251.77 137.664 252.362 137.664C252.794 137.664 253.194 137.748 253.562 137.916C253.93 138.08 254.236 138.31 254.48 138.606V137.856H256.322V144.168C256.322 144.772 256.19 145.31 255.926 145.782C255.666 146.254 255.27 146.624 254.738 146.892C254.206 147.164 253.536 147.3 252.728 147.3ZM252.866 142.626C253.19 142.626 253.476 142.554 253.724 142.41C253.976 142.262 254.172 142.062 254.312 141.81C254.452 141.554 254.522 141.264 254.522 140.94C254.522 140.608 254.45 140.314 254.306 140.058C254.166 139.802 253.972 139.6 253.724 139.452C253.476 139.304 253.194 139.23 252.878 139.23C252.562 139.23 252.28 139.304 252.032 139.452C251.784 139.6 251.588 139.804 251.444 140.064C251.3 140.32 251.228 140.612 251.228 140.94C251.228 141.264 251.298 141.554 251.438 141.81C251.578 142.062 251.772 142.262 252.02 142.41C252.268 142.554 252.55 142.626 252.866 142.626ZM258.236 147.12L260.222 143.232L257.3 137.856H259.412L261.296 141.456L262.928 137.856H265.04L260.342 147.12H258.236Z" fill="#2B2B2B"/>
<path d="M131.758 245V236.816H129.25V235.1H136.21V236.816H133.696V245H131.758ZM139.144 245.192C138.58 245.192 138.066 245.052 137.602 244.772C137.142 244.488 136.776 244.1 136.504 243.608C136.236 243.112 136.102 242.548 136.102 241.916C136.102 241.3 136.232 240.748 136.492 240.26C136.752 239.768 137.11 239.38 137.566 239.096C138.026 238.808 138.552 238.664 139.144 238.664C139.58 238.664 139.986 238.748 140.362 238.916C140.742 239.08 141.052 239.31 141.292 239.606V238.856H143.134V245H141.292V244.19C141.012 244.514 140.69 244.762 140.326 244.934C139.962 245.106 139.568 245.192 139.144 245.192ZM139.69 243.626C140.01 243.626 140.294 243.554 140.542 243.41C140.79 243.262 140.984 243.06 141.124 242.804C141.264 242.548 141.334 242.256 141.334 241.928C141.334 241.596 141.262 241.304 141.118 241.052C140.978 240.796 140.784 240.596 140.536 240.452C140.292 240.304 140.01 240.23 139.69 240.23C139.374 240.23 139.092 240.304 138.844 240.452C138.596 240.596 138.4 240.796 138.256 241.052C138.112 241.308 138.04 241.6 138.04 241.928C138.04 242.256 138.11 242.548 138.25 242.804C138.394 243.06 138.59 243.262 138.838 243.41C139.086 243.554 139.37 243.626 139.69 243.626ZM145.301 245V238.856H147.143V239.738C147.371 239.394 147.649 239.13 147.977 238.946C148.309 238.758 148.665 238.664 149.045 238.664C149.261 238.664 149.485 238.696 149.717 238.76C149.949 238.824 150.143 238.906 150.299 239.006L149.531 240.56C149.395 240.468 149.235 240.396 149.051 240.344C148.871 240.288 148.703 240.26 148.547 240.26C148.307 240.26 148.079 240.322 147.863 240.446C147.647 240.57 147.473 240.732 147.341 240.932C147.209 241.128 147.143 241.34 147.143 241.568V245H145.301ZM154.189 248.3C153.361 248.3 152.665 248.148 152.101 247.844C151.537 247.544 151.127 247.1 150.871 246.512L152.371 245.78C152.539 246.064 152.787 246.29 153.115 246.458C153.443 246.626 153.799 246.71 154.183 246.71C154.531 246.71 154.837 246.64 155.101 246.5C155.365 246.364 155.571 246.17 155.719 245.918C155.867 245.67 155.941 245.382 155.941 245.054V244.19C155.669 244.506 155.347 244.752 154.975 244.928C154.603 245.104 154.203 245.192 153.775 245.192C153.219 245.192 152.711 245.054 152.251 244.778C151.795 244.498 151.431 244.112 151.159 243.62C150.887 243.128 150.751 242.564 150.751 241.928C150.751 241.304 150.883 240.748 151.147 240.26C151.415 239.768 151.779 239.38 152.239 239.096C152.703 238.808 153.231 238.664 153.823 238.664C154.255 238.664 154.655 238.748 155.023 238.916C155.391 239.08 155.697 239.31 155.941 239.606V238.856H157.783V245.168C157.783 245.772 157.651 246.31 157.387 246.782C157.127 247.254 156.731 247.624 156.199 247.892C155.667 248.164 154.997 248.3 154.189 248.3ZM154.327 243.626C154.651 243.626 154.937 243.554 155.185 243.41C155.437 243.262 155.633 243.062 155.773 242.81C155.913 242.554 155.983 242.264 155.983 241.94C155.983 241.608 155.911 241.314 155.767 241.058C155.627 240.802 155.433 240.6 155.185 240.452C154.937 240.304 154.655 240.23 154.339 240.23C154.023 240.23 153.741 240.304 153.493 240.452C153.245 240.6 153.049 240.804 152.905 241.064C152.761 241.32 152.689 241.612 152.689 241.94C152.689 242.264 152.759 242.554 152.899 242.81C153.039 243.062 153.233 243.262 153.481 243.41C153.729 243.554 154.011 243.626 154.327 243.626ZM162.843 245.192C162.179 245.192 161.583 245.05 161.055 244.766C160.531 244.478 160.115 244.088 159.807 243.596C159.499 243.104 159.345 242.548 159.345 241.928C159.345 241.472 159.431 241.046 159.603 240.65C159.779 240.254 160.023 239.908 160.335 239.612C160.647 239.312 161.009 239.08 161.421 238.916C161.833 238.748 162.279 238.664 162.759 238.664C163.399 238.664 163.959 238.798 164.439 239.066C164.923 239.33 165.299 239.698 165.567 240.17C165.839 240.642 165.975 241.192 165.975 241.82C165.975 241.872 165.973 241.918 165.969 241.958C165.969 241.994 165.963 242.064 165.951 242.168H161.241C161.241 242.48 161.311 242.752 161.451 242.984C161.595 243.216 161.795 243.398 162.051 243.53C162.307 243.658 162.605 243.722 162.945 243.722C163.265 243.722 163.547 243.66 163.791 243.536C164.039 243.412 164.277 243.214 164.505 242.942L165.831 243.608C165.543 244.104 165.135 244.492 164.607 244.772C164.079 245.052 163.491 245.192 162.843 245.192ZM161.307 241.148H164.163C164.123 240.912 164.037 240.708 163.905 240.536C163.777 240.364 163.613 240.232 163.413 240.14C163.213 240.048 162.987 240.002 162.735 240.002C162.467 240.002 162.231 240.048 162.027 240.14C161.823 240.232 161.659 240.364 161.535 240.536C161.411 240.708 161.335 240.912 161.307 241.148ZM169.696 245.192C169.084 245.192 168.608 244.998 168.268 244.61C167.928 244.218 167.758 243.672 167.758 242.972V240.254H166.936V238.856H167.758V236.552H169.6V238.856H170.95V240.254H169.6V242.84C169.6 243.072 169.646 243.248 169.738 243.368C169.834 243.488 169.968 243.548 170.14 243.548C170.332 243.548 170.516 243.484 170.692 243.356L171.154 244.832C170.946 244.944 170.712 245.032 170.452 245.096C170.196 245.16 169.944 245.192 169.696 245.192ZM178.993 245.192C177.873 245.192 177.065 244.97 176.569 244.526C176.073 244.082 175.825 243.356 175.825 242.348V238.856H177.667V241.916C177.667 242.564 177.767 243.022 177.967 243.29C178.171 243.558 178.513 243.692 178.993 243.692C179.481 243.692 179.823 243.558 180.019 243.29C180.219 243.022 180.319 242.564 180.319 241.916V238.856H182.161V242.348C182.161 243.356 181.913 244.082 181.417 244.526C180.925 244.97 180.117 245.192 178.993 245.192ZM185.877 245.192C185.357 245.192 184.891 245.11 184.479 244.946C184.071 244.782 183.731 244.542 183.459 244.226L184.233 242.99C184.489 243.262 184.757 243.47 185.037 243.614C185.317 243.758 185.597 243.83 185.877 243.83C186.033 243.83 186.167 243.804 186.279 243.752C186.395 243.7 186.485 243.626 186.549 243.53C186.617 243.43 186.651 243.31 186.651 243.17C186.651 243.01 186.605 242.884 186.513 242.792C186.425 242.7 186.289 242.616 186.105 242.54C185.921 242.46 185.683 242.36 185.391 242.24C185.143 242.136 184.905 242.018 184.677 241.886C184.449 241.754 184.263 241.586 184.119 241.382C183.979 241.178 183.909 240.92 183.909 240.608C183.909 240.228 184.015 239.894 184.227 239.606C184.439 239.314 184.731 239.086 185.103 238.922C185.479 238.758 185.911 238.676 186.399 238.676C186.703 238.676 187.021 238.722 187.353 238.814C187.689 238.906 188.047 239.046 188.427 239.234L187.797 240.416C187.281 240.084 186.819 239.918 186.411 239.918C186.183 239.918 186.001 239.968 185.865 240.068C185.729 240.168 185.661 240.294 185.661 240.446C185.661 240.59 185.731 240.716 185.871 240.824C186.015 240.928 186.189 241.022 186.393 241.106C186.601 241.186 186.799 241.26 186.987 241.328C187.295 241.44 187.567 241.564 187.803 241.7C188.043 241.836 188.231 242.014 188.367 242.234C188.503 242.45 188.571 242.74 188.571 243.104C188.571 243.548 188.463 243.926 188.247 244.238C188.035 244.546 187.727 244.782 187.323 244.946C186.923 245.11 186.441 245.192 185.877 245.192ZM193.229 245.192C192.565 245.192 191.969 245.05 191.441 244.766C190.917 244.478 190.501 244.088 190.193 243.596C189.885 243.104 189.731 242.548 189.731 241.928C189.731 241.472 189.817 241.046 189.989 240.65C190.165 240.254 190.409 239.908 190.721 239.612C191.033 239.312 191.395 239.08 191.807 238.916C192.219 238.748 192.665 238.664 193.145 238.664C193.785 238.664 194.345 238.798 194.825 239.066C195.309 239.33 195.685 239.698 195.953 240.17C196.225 240.642 196.361 241.192 196.361 241.82C196.361 241.872 196.359 241.918 196.355 241.958C196.355 241.994 196.349 242.064 196.337 242.168H191.627C191.627 242.48 191.697 242.752 191.837 242.984C191.981 243.216 192.181 243.398 192.437 243.53C192.693 243.658 192.991 243.722 193.331 243.722C193.651 243.722 193.933 243.66 194.177 243.536C194.425 243.412 194.663 243.214 194.891 242.942L196.217 243.608C195.929 244.104 195.521 244.492 194.993 244.772C194.465 245.052 193.877 245.192 193.229 245.192ZM191.693 241.148H194.549C194.509 240.912 194.423 240.708 194.291 240.536C194.163 240.364 193.999 240.232 193.799 240.14C193.599 240.048 193.373 240.002 193.121 240.002C192.853 240.002 192.617 240.048 192.413 240.14C192.209 240.232 192.045 240.364 191.921 240.536C191.797 240.708 191.721 240.912 191.693 241.148ZM198 245V238.856H199.842V239.738C200.07 239.394 200.348 239.13 200.676 238.946C201.008 238.758 201.364 238.664 201.744 238.664C201.96 238.664 202.184 238.696 202.416 238.76C202.648 238.824 202.842 238.906 202.998 239.006L202.23 240.56C202.094 240.468 201.934 240.396 201.75 240.344C201.57 240.288 201.402 240.26 201.246 240.26C201.006 240.26 200.778 240.322 200.562 240.446C200.346 240.57 200.172 240.732 200.04 240.932C199.908 241.128 199.842 241.34 199.842 241.568V245H198ZM205.67 245.192C205.15 245.192 204.684 245.11 204.272 244.946C203.864 244.782 203.524 244.542 203.252 244.226L204.026 242.99C204.282 243.262 204.55 243.47 204.83 243.614C205.11 243.758 205.39 243.83 205.67 243.83C205.826 243.83 205.96 243.804 206.072 243.752C206.188 243.7 206.278 243.626 206.342 243.53C206.41 243.43 206.444 243.31 206.444 243.17C206.444 243.01 206.398 242.884 206.306 242.792C206.218 242.7 206.082 242.616 205.898 242.54C205.714 242.46 205.476 242.36 205.184 242.24C204.936 242.136 204.698 242.018 204.47 241.886C204.242 241.754 204.056 241.586 203.912 241.382C203.772 241.178 203.702 240.92 203.702 240.608C203.702 240.228 203.808 239.894 204.02 239.606C204.232 239.314 204.524 239.086 204.896 238.922C205.272 238.758 205.704 238.676 206.192 238.676C206.496 238.676 206.814 238.722 207.146 238.814C207.482 238.906 207.84 239.046 208.22 239.234L207.59 240.416C207.074 240.084 206.612 239.918 206.204 239.918C205.976 239.918 205.794 239.968 205.658 240.068C205.522 240.168 205.454 240.294 205.454 240.446C205.454 240.59 205.524 240.716 205.664 240.824C205.808 240.928 205.982 241.022 206.186 241.106C206.394 241.186 206.592 241.26 206.78 241.328C207.088 241.44 207.36 241.564 207.596 241.7C207.836 241.836 208.024 242.014 208.16 242.234C208.296 242.45 208.364 242.74 208.364 243.104C208.364 243.548 208.256 243.926 208.04 244.238C207.828 244.546 207.52 244.782 207.116 244.946C206.716 245.11 206.234 245.192 205.67 245.192ZM150.738 266V259.856H152.58V260.54C152.816 260.276 153.11 260.064 153.462 259.904C153.818 259.744 154.21 259.664 154.638 259.664C155.11 259.664 155.524 259.768 155.88 259.976C156.24 260.18 156.522 260.466 156.726 260.834C156.93 261.198 157.032 261.624 157.032 262.112V266H155.19V262.502C155.19 262.062 155.074 261.72 154.842 261.476C154.614 261.228 154.3 261.104 153.9 261.104C153.628 261.104 153.392 261.16 153.192 261.272C152.996 261.38 152.844 261.53 152.736 261.722C152.632 261.91 152.58 262.124 152.58 262.364V266H150.738ZM162.034 266.192C161.37 266.192 160.774 266.05 160.246 265.766C159.722 265.478 159.306 265.088 158.998 264.596C158.69 264.104 158.536 263.548 158.536 262.928C158.536 262.472 158.622 262.046 158.794 261.65C158.97 261.254 159.214 260.908 159.526 260.612C159.838 260.312 160.2 260.08 160.612 259.916C161.024 259.748 161.47 259.664 161.95 259.664C162.59 259.664 163.15 259.798 163.63 260.066C164.114 260.33 164.49 260.698 164.758 261.17C165.03 261.642 165.166 262.192 165.166 262.82C165.166 262.872 165.164 262.918 165.16 262.958C165.16 262.994 165.154 263.064 165.142 263.168H160.432C160.432 263.48 160.502 263.752 160.642 263.984C160.786 264.216 160.986 264.398 161.242 264.53C161.498 264.658 161.796 264.722 162.136 264.722C162.456 264.722 162.738 264.66 162.982 264.536C163.23 264.412 163.468 264.214 163.696 263.942L165.022 264.608C164.734 265.104 164.326 265.492 163.798 265.772C163.27 266.052 162.682 266.192 162.034 266.192ZM160.498 262.148H163.354C163.314 261.912 163.228 261.708 163.096 261.536C162.968 261.364 162.804 261.232 162.604 261.14C162.404 261.048 162.178 261.002 161.926 261.002C161.658 261.002 161.422 261.048 161.218 261.14C161.014 261.232 160.85 261.364 160.726 261.536C160.602 261.708 160.526 261.912 160.498 262.148ZM169.78 266.192C169.116 266.192 168.52 266.05 167.992 265.766C167.468 265.478 167.052 265.088 166.744 264.596C166.436 264.104 166.282 263.548 166.282 262.928C166.282 262.472 166.368 262.046 166.54 261.65C166.716 261.254 166.96 260.908 167.272 260.612C167.584 260.312 167.946 260.08 168.358 259.916C168.77 259.748 169.216 259.664 169.696 259.664C170.336 259.664 170.896 259.798 171.376 260.066C171.86 260.33 172.236 260.698 172.504 261.17C172.776 261.642 172.912 262.192 172.912 262.82C172.912 262.872 172.91 262.918 172.906 262.958C172.906 262.994 172.9 263.064 172.888 263.168H168.178C168.178 263.48 168.248 263.752 168.388 263.984C168.532 264.216 168.732 264.398 168.988 264.53C169.244 264.658 169.542 264.722 169.882 264.722C170.202 264.722 170.484 264.66 170.728 264.536C170.976 264.412 171.214 264.214 171.442 263.942L172.768 264.608C172.48 265.104 172.072 265.492 171.544 265.772C171.016 266.052 170.428 266.192 169.78 266.192ZM168.244 262.148H171.1C171.06 261.912 170.974 261.708 170.842 261.536C170.714 261.364 170.55 261.232 170.35 261.14C170.15 261.048 169.924 261.002 169.672 261.002C169.404 261.002 169.168 261.048 168.964 261.14C168.76 261.232 168.596 261.364 168.472 261.536C168.348 261.708 168.272 261.912 168.244 262.148ZM177.118 266.192C176.562 266.192 176.054 266.054 175.594 265.778C175.138 265.498 174.774 265.112 174.502 264.62C174.23 264.128 174.094 263.564 174.094 262.928C174.094 262.304 174.226 261.748 174.49 261.26C174.754 260.768 175.116 260.38 175.576 260.096C176.04 259.808 176.57 259.664 177.166 259.664C177.598 259.664 177.998 259.748 178.366 259.916C178.734 260.08 179.04 260.31 179.284 260.606V255.68H181.126V266H179.284V265.19C179.012 265.506 178.69 265.752 178.318 265.928C177.946 266.104 177.546 266.192 177.118 266.192ZM177.67 264.626C177.994 264.626 178.28 264.554 178.528 264.41C178.776 264.262 178.97 264.06 179.11 263.804C179.254 263.548 179.326 263.258 179.326 262.934C179.326 262.606 179.254 262.314 179.11 262.058C178.97 261.802 178.776 261.6 178.528 261.452C178.28 261.304 177.996 261.23 177.676 261.23C177.36 261.23 177.078 261.304 176.83 261.452C176.586 261.6 176.392 261.804 176.248 262.064C176.104 262.32 176.032 262.612 176.032 262.94C176.032 263.264 176.102 263.554 176.242 263.81C176.382 264.062 176.576 264.262 176.824 264.41C177.072 264.554 177.354 264.626 177.67 264.626ZM185.033 266.192C184.513 266.192 184.047 266.11 183.635 265.946C183.227 265.782 182.887 265.542 182.615 265.226L183.389 263.99C183.645 264.262 183.913 264.47 184.193 264.614C184.473 264.758 184.753 264.83 185.033 264.83C185.189 264.83 185.323 264.804 185.435 264.752C185.551 264.7 185.641 264.626 185.705 264.53C185.773 264.43 185.807 264.31 185.807 264.17C185.807 264.01 185.761 263.884 185.669 263.792C185.581 263.7 185.445 263.616 185.261 263.54C185.077 263.46 184.839 263.36 184.547 263.24C184.299 263.136 184.061 263.018 183.833 262.886C183.605 262.754 183.419 262.586 183.275 262.382C183.135 262.178 183.065 261.92 183.065 261.608C183.065 261.228 183.171 260.894 183.383 260.606C183.595 260.314 183.887 260.086 184.259 259.922C184.635 259.758 185.067 259.676 185.555 259.676C185.859 259.676 186.177 259.722 186.509 259.814C186.845 259.906 187.203 260.046 187.583 260.234L186.953 261.416C186.437 261.084 185.975 260.918 185.567 260.918C185.339 260.918 185.157 260.968 185.021 261.068C184.885 261.168 184.817 261.294 184.817 261.446C184.817 261.59 184.887 261.716 185.027 261.824C185.171 261.928 185.345 262.022 185.549 262.106C185.757 262.186 185.955 262.26 186.143 262.328C186.451 262.44 186.723 262.564 186.959 262.7C187.199 262.836 187.387 263.014 187.523 263.234C187.659 263.45 187.727 263.74 187.727 264.104C187.727 264.548 187.619 264.926 187.403 265.238C187.191 265.546 186.883 265.782 186.479 265.946C186.079 266.11 185.597 266.192 185.033 266.192Z" fill="#2B2B2B"/>
<path d="M144.42 169V159.1H147.792C148.436 159.1 149.008 159.212 149.508 159.436C150.008 159.66 150.402 159.994 150.69 160.438C150.978 160.878 151.122 161.428 151.122 162.088C151.122 162.744 150.978 163.304 150.69 163.768C150.402 164.232 150.008 164.588 149.508 164.836C149.008 165.08 148.436 165.202 147.792 165.202H146.364V169H144.42ZM146.364 163.648H147.192C147.532 163.648 147.844 163.598 148.128 163.498C148.416 163.398 148.648 163.238 148.824 163.018C149 162.798 149.088 162.508 149.088 162.148C149.088 161.784 149 161.494 148.824 161.278C148.648 161.058 148.416 160.9 148.128 160.804C147.844 160.704 147.532 160.654 147.192 160.654H146.364V163.648ZM152.348 169V162.856H154.19V163.738C154.418 163.394 154.696 163.13 155.024 162.946C155.356 162.758 155.712 162.664 156.092 162.664C156.308 162.664 156.532 162.696 156.764 162.76C156.996 162.824 157.19 162.906 157.346 163.006L156.578 164.56C156.442 164.468 156.282 164.396 156.098 164.344C155.918 164.288 155.75 164.26 155.594 164.26C155.354 164.26 155.126 164.322 154.91 164.446C154.694 164.57 154.52 164.732 154.388 164.932C154.256 165.128 154.19 165.34 154.19 165.568V169H152.348ZM161.361 169.192C160.685 169.192 160.075 169.054 159.531 168.778C158.987 168.498 158.555 168.114 158.235 167.626C157.915 167.134 157.755 166.568 157.755 165.928C157.755 165.288 157.913 164.724 158.229 164.236C158.549 163.744 158.981 163.36 159.525 163.084C160.073 162.804 160.685 162.664 161.361 162.664C162.041 162.664 162.653 162.804 163.197 163.084C163.741 163.36 164.171 163.744 164.487 164.236C164.807 164.724 164.967 165.288 164.967 165.928C164.967 166.568 164.807 167.134 164.487 167.626C164.171 168.114 163.741 168.498 163.197 168.778C162.653 169.054 162.041 169.192 161.361 169.192ZM161.367 167.62C161.679 167.62 161.963 167.548 162.219 167.404C162.475 167.26 162.677 167.062 162.825 166.81C162.973 166.554 163.047 166.26 163.047 165.928C163.047 165.596 162.973 165.304 162.825 165.052C162.677 164.796 162.475 164.596 162.219 164.452C161.963 164.308 161.679 164.236 161.367 164.236C161.051 164.236 160.765 164.308 160.509 164.452C160.257 164.596 160.057 164.796 159.909 165.052C159.761 165.304 159.687 165.596 159.687 165.928C159.687 166.26 159.761 166.554 159.909 166.81C160.057 167.062 160.257 167.26 160.509 167.404C160.765 167.548 161.051 167.62 161.367 167.62ZM169.142 169.192C168.586 169.192 168.078 169.054 167.618 168.778C167.162 168.498 166.798 168.112 166.526 167.62C166.254 167.128 166.118 166.564 166.118 165.928C166.118 165.304 166.25 164.748 166.514 164.26C166.778 163.768 167.14 163.38 167.6 163.096C168.064 162.808 168.594 162.664 169.19 162.664C169.622 162.664 170.022 162.748 170.39 162.916C170.758 163.08 171.064 163.31 171.308 163.606V158.68H173.15V169H171.308V168.19C171.036 168.506 170.714 168.752 170.342 168.928C169.97 169.104 169.57 169.192 169.142 169.192ZM169.694 167.626C170.018 167.626 170.304 167.554 170.552 167.41C170.8 167.262 170.994 167.06 171.134 166.804C171.278 166.548 171.35 166.258 171.35 165.934C171.35 165.606 171.278 165.314 171.134 165.058C170.994 164.802 170.8 164.6 170.552 164.452C170.304 164.304 170.02 164.23 169.7 164.23C169.384 164.23 169.102 164.304 168.854 164.452C168.61 164.6 168.416 164.804 168.272 165.064C168.128 165.32 168.056 165.612 168.056 165.94C168.056 166.264 168.126 166.554 168.266 166.81C168.406 167.062 168.6 167.262 168.848 167.41C169.096 167.554 169.378 167.626 169.694 167.626ZM178.328 169.192C177.208 169.192 176.4 168.97 175.904 168.526C175.408 168.082 175.16 167.356 175.16 166.348V162.856H177.002V165.916C177.002 166.564 177.102 167.022 177.302 167.29C177.506 167.558 177.848 167.692 178.328 167.692C178.816 167.692 179.158 167.558 179.354 167.29C179.554 167.022 179.654 166.564 179.654 165.916V162.856H181.496V166.348C181.496 167.356 181.248 168.082 180.752 168.526C180.26 168.97 179.452 169.192 178.328 169.192ZM186.394 169.192C185.926 169.192 185.484 169.108 185.068 168.94C184.656 168.772 184.292 168.54 183.976 168.244C183.66 167.944 183.412 167.598 183.232 167.206C183.052 166.81 182.962 166.386 182.962 165.934C182.962 165.498 183.046 165.084 183.214 164.692C183.386 164.3 183.626 163.952 183.934 163.648C184.246 163.344 184.61 163.104 185.026 162.928C185.446 162.752 185.9 162.664 186.388 162.664C186.784 162.664 187.164 162.72 187.528 162.832C187.896 162.944 188.192 163.088 188.416 163.264L187.786 164.506C187.486 164.286 187.114 164.176 186.67 164.176C186.29 164.176 185.968 164.26 185.704 164.428C185.44 164.596 185.238 164.814 185.098 165.082C184.962 165.35 184.894 165.632 184.894 165.928C184.894 166.252 184.968 166.548 185.116 166.816C185.264 167.08 185.472 167.29 185.74 167.446C186.012 167.602 186.326 167.68 186.682 167.68C186.902 167.68 187.108 167.65 187.3 167.59C187.492 167.53 187.654 167.45 187.786 167.35L188.416 168.592C188.188 168.764 187.894 168.906 187.534 169.018C187.174 169.134 186.794 169.192 186.394 169.192ZM191.966 169.192C191.354 169.192 190.878 168.998 190.538 168.61C190.198 168.218 190.028 167.672 190.028 166.972V164.254H189.206V162.856H190.028V160.552H191.87V162.856H193.22V164.254H191.87V166.84C191.87 167.072 191.916 167.248 192.008 167.368C192.104 167.488 192.238 167.548 192.41 167.548C192.602 167.548 192.786 167.484 192.962 167.356L193.424 168.832C193.216 168.944 192.982 169.032 192.722 169.096C192.466 169.16 192.214 169.192 191.966 169.192ZM152.496 190L149.268 183.856H151.44L153.114 187.564L154.788 183.856H156.96L153.726 190H152.496ZM157.961 190V183.856H159.803V190H157.961ZM158.885 182.578C158.685 182.578 158.501 182.53 158.333 182.434C158.169 182.334 158.037 182.2 157.937 182.032C157.837 181.864 157.787 181.68 157.787 181.48C157.787 181.28 157.837 181.098 157.937 180.934C158.037 180.77 158.169 180.64 158.333 180.544C158.501 180.444 158.685 180.394 158.885 180.394C159.085 180.394 159.267 180.444 159.431 180.544C159.595 180.64 159.725 180.77 159.821 180.934C159.921 181.098 159.971 181.28 159.971 181.48C159.971 181.68 159.921 181.864 159.821 182.032C159.725 182.2 159.595 182.334 159.431 182.434C159.267 182.53 159.085 182.578 158.885 182.578ZM163.715 190.192C163.195 190.192 162.729 190.11 162.317 189.946C161.909 189.782 161.569 189.542 161.297 189.226L162.071 187.99C162.327 188.262 162.595 188.47 162.875 188.614C163.155 188.758 163.435 188.83 163.715 188.83C163.871 188.83 164.005 188.804 164.117 188.752C164.233 188.7 164.323 188.626 164.387 188.53C164.455 188.43 164.489 188.31 164.489 188.17C164.489 188.01 164.443 187.884 164.351 187.792C164.263 187.7 164.127 187.616 163.943 187.54C163.759 187.46 163.521 187.36 163.229 187.24C162.981 187.136 162.743 187.018 162.515 186.886C162.287 186.754 162.101 186.586 161.957 186.382C161.817 186.178 161.747 185.92 161.747 185.608C161.747 185.228 161.853 184.894 162.065 184.606C162.277 184.314 162.569 184.086 162.941 183.922C163.317 183.758 163.749 183.676 164.237 183.676C164.541 183.676 164.859 183.722 165.191 183.814C165.527 183.906 165.885 184.046 166.265 184.234L165.635 185.416C165.119 185.084 164.657 184.918 164.249 184.918C164.021 184.918 163.839 184.968 163.703 185.068C163.567 185.168 163.499 185.294 163.499 185.446C163.499 185.59 163.569 185.716 163.709 185.824C163.853 185.928 164.027 186.022 164.231 186.106C164.439 186.186 164.637 186.26 164.825 186.328C165.133 186.44 165.405 186.564 165.641 186.7C165.881 186.836 166.069 187.014 166.205 187.234C166.341 187.45 166.409 187.74 166.409 188.104C166.409 188.548 166.301 188.926 166.085 189.238C165.873 189.546 165.565 189.782 165.161 189.946C164.761 190.11 164.279 190.192 163.715 190.192ZM168.109 190V183.856H169.951V190H168.109ZM169.033 182.578C168.833 182.578 168.649 182.53 168.481 182.434C168.317 182.334 168.185 182.2 168.085 182.032C167.985 181.864 167.935 181.68 167.935 181.48C167.935 181.28 167.985 181.098 168.085 180.934C168.185 180.77 168.317 180.64 168.481 180.544C168.649 180.444 168.833 180.394 169.033 180.394C169.233 180.394 169.415 180.444 169.579 180.544C169.743 180.64 169.873 180.77 169.969 180.934C170.069 181.098 170.119 181.28 170.119 181.48C170.119 181.68 170.069 181.864 169.969 182.032C169.873 182.2 169.743 182.334 169.579 182.434C169.415 182.53 169.233 182.578 169.033 182.578ZM175.183 190.192C174.507 190.192 173.897 190.054 173.353 189.778C172.809 189.498 172.377 189.114 172.057 188.626C171.737 188.134 171.577 187.568 171.577 186.928C171.577 186.288 171.735 185.724 172.051 185.236C172.371 184.744 172.803 184.36 173.347 184.084C173.895 183.804 174.507 183.664 175.183 183.664C175.863 183.664 176.475 183.804 177.019 184.084C177.563 184.36 177.993 184.744 178.309 185.236C178.629 185.724 178.789 186.288 178.789 186.928C178.789 187.568 178.629 188.134 178.309 188.626C177.993 189.114 177.563 189.498 177.019 189.778C176.475 190.054 175.863 190.192 175.183 190.192ZM175.189 188.62C175.501 188.62 175.785 188.548 176.041 188.404C176.297 188.26 176.499 188.062 176.647 187.81C176.795 187.554 176.869 187.26 176.869 186.928C176.869 186.596 176.795 186.304 176.647 186.052C176.499 185.796 176.297 185.596 176.041 185.452C175.785 185.308 175.501 185.236 175.189 185.236C174.873 185.236 174.587 185.308 174.331 185.452C174.079 185.596 173.879 185.796 173.731 186.052C173.583 186.304 173.509 186.596 173.509 186.928C173.509 187.26 173.583 187.554 173.731 187.81C173.879 188.062 174.079 188.26 174.331 188.404C174.587 188.548 174.873 188.62 175.189 188.62ZM180.397 190V183.856H182.239V184.54C182.475 184.276 182.769 184.064 183.121 183.904C183.477 183.744 183.869 183.664 184.297 183.664C184.769 183.664 185.183 183.768 185.539 183.976C185.899 184.18 186.181 184.466 186.385 184.834C186.589 185.198 186.691 185.624 186.691 186.112V190H184.849V186.502C184.849 186.062 184.733 185.72 184.501 185.476C184.273 185.228 183.959 185.104 183.559 185.104C183.287 185.104 183.051 185.16 182.851 185.272C182.655 185.38 182.503 185.53 182.395 185.722C182.291 185.91 182.239 186.124 182.239 186.364V190H180.397Z" fill="#2B2B2B"/>
</svg>
