<svg width="24" height="24" viewBox="0 0 24 24" fill="none" xmlns="http://www.w3.org/2000/svg">
<rect x="0.5" y="0.5" width="23" height="23" fill="white"/>
<rect x="0.5" y="0.5" width="23" height="23" stroke="black"/>
<path fill-rule="evenodd" clip-rule="evenodd" d="M10 9H16.3889C18.3832 9 20 10.6167 20 12.6111C20 12.6111 20 15.5 16.9231 15.5C20 15.5 20 18.3889 20 18.3889C20 20.3833 18.3833 22 16.3889 22H10V9ZM16.1538 13.3333C16.1538 11.8889 15.3846 11.8889 13.8462 11.8889V14.7778C15.3846 14.7778 16.1538 14.7778 16.1538 13.3333ZM16.1538 18.3889C16.1538 16.9444 15.3846 16.9444 13.8462 16.9444V19.8333C15.3846 19.8333 16.1538 19.8333 16.1538 18.3889Z" fill="black"/>
<path d="M2 9V22H5.5V16.9444H9V14.0556H5.5V11.8889H9V9H2Z" fill="black"/>
</svg>
